{"accessors":[{"bufferView":0,"byteOffset":0,"componentType":5126,"count":342,"max":[0.500000059604645,2.0,2.0],"min":[-0.500000059604645,-4.0,-2.0],"normalized":false,"type":"VEC3"},{"bufferView":1,"byteOffset":0,"componentType":5126,"count":342,"max":[1.0,0.99241441488266,0.923914015293121,1.0],"min":[-1.0,-1.0,-1.0,-1.0],"normalized":false,"type":"VEC4"},{"bufferView":2,"byteOffset":0,"componentType":5126,"count":342,"max":[1.0,0.990606904029846,1.0],"min":[-1.0,-1.0,-1.0],"normalized":false,"type":"VEC3"},{"bufferView":3,"byteOffset":0,"componentType":5126,"count":342,"max":[1.0,1.0],"min":[0.0,0.0],"normalized":false,"type":"VEC2"},{"bufferView":4,"byteOffset":0,"componentType":5123,"count":342,"max":[341.0],"min":[0.0],"normalized":false,"type":"SCALAR"}],"asset":{"generator":"Godot Engine v4.4.stable.official@4c311cbee68c0b66ff8ebb8b0defdd9979dd2a41","version":"2.0"},"bufferViews":[{"buffer":0,"byteLength":4104,"byteOffset":0,"byteStride":12,"target":34962},{"buffer":0,"byteLength":5472,"byteOffset":4104,"byteStride":16,"target":34962},{"buffer":0,"byteLength":4104,"byteOffset":9576,"byteStride":12,"target":34962},{"buffer":0,"byteLength":2736,"byteOffset":13680,"byteStride":8,"target":34962},{"buffer":0,"byteLength":684,"byteOffset":16416,"target":34963}],"buffers":[{"byteLength":17100,"uri":"Archway0.bin"}],"extensionsUsed":["GODOT_single_root"],"materials":[{}],"meshes":[{"extras":{"targetNames":[]},"primitives":[{"attributes":{"NORMAL":2,"POSITION":0,"TANGENT":1,"TEXCOORD_0":3},"indices":4,"material":0,"mode":4}]}],"nodes":[{"children":[1,2,3,4],"mesh":0,"name":"Archway2"},{"name":"Top","rotation":[0.0,0.0,-0.70710676908493,0.70710676908493]},{"name":"TopCarver","rotation":[0.0,0.0,-0.70710676908493,0.70710676908493]},{"name":"Main","translation":[0.0,-2.0,0.0]},{"name":"MainCarver","translation":[0.0,-2.0,0.0]}],"scene":0,"scenes":[{"nodes":[0]}]}