{"accessors":[{"bufferView":0,"byteOffset":0,"componentType":5126,"count":192,"max":[1.0,0.5,1.0],"min":[-1.0,-0.5,-1.0],"normalized":false,"type":"VEC3"},{"bufferView":1,"byteOffset":0,"componentType":5126,"count":192,"max":[1.0,0.0000641329243080691,0.990606546401978,1.0],"min":[-0.990612268447876,-0.000021376912627602,-0.990609526634216,-1.0],"normalized":false,"type":"VEC4"},{"bufferView":2,"byteOffset":0,"componentType":5126,"count":192,"max":[0.990606904029846,1.0,0.990606606006622],"min":[-0.990606904029846,-1.0,-1.0],"normalized":false,"type":"VEC3"},{"bufferView":3,"byteOffset":0,"componentType":5126,"count":192,"max":[1.0,1.0],"min":[0.0,0.0],"normalized":false,"type":"VEC2"},{"bufferView":4,"byteOffset":0,"componentType":5123,"count":192,"max":[191.0],"min":[0.0],"normalized":false,"type":"SCALAR"}],"asset":{"generator":"Godot Engine v4.4.stable.official@4c311cbee68c0b66ff8ebb8b0defdd9979dd2a41","version":"2.0"},"bufferViews":[{"buffer":0,"byteLength":2304,"byteOffset":0,"byteStride":12,"target":34962},{"buffer":0,"byteLength":3072,"byteOffset":2304,"byteStride":16,"target":34962},{"buffer":0,"byteLength":2304,"byteOffset":5376,"byteStride":12,"target":34962},{"buffer":0,"byteLength":1536,"byteOffset":7680,"byteStride":8,"target":34962},{"buffer":0,"byteLength":384,"byteOffset":9216,"target":34963}],"buffers":[{"byteLength":9600,"uri":"Caudron0.bin"}],"extensionsUsed":["GODOT_single_root"],"materials":[{}],"meshes":[{"extras":{"targetNames":[]},"primitives":[{"attributes":{"NORMAL":2,"POSITION":0,"TANGENT":1,"TEXCOORD_0":3},"indices":4,"material":0,"mode":4}]}],"nodes":[{"children":[1,2],"mesh":0,"name":"Caudron2"},{"name":"Outer"},{"name":"Hollow","translation":[0.0,0.163103938102722,0.0]}],"scene":0,"scenes":[{"nodes":[0]}]}