{"accessors":[{"bufferView":0,"byteOffset":0,"componentType":5126,"count":66,"max":[0.440065503120422,0.310917347669601,0.400000005960464],"min":[0.340065479278564,-0.310917288064957,-0.400000005960464],"normalized":false,"type":"VEC3"},{"bufferView":1,"byteOffset":0,"componentType":5126,"count":66,"max":[1.0,0.997812330722809,0.0000200923132069875,1.0],"min":[-0.555559575557709,-0.997810184955597,-1.0,-1.0],"normalized":false,"type":"VEC4"},{"bufferView":2,"byteOffset":0,"componentType":5126,"count":66,"max":[0.997809112071991,0.555564343929291,1.0],"min":[-1.0,-0.555588781833649,-1.0],"normalized":false,"type":"VEC3"},{"bufferView":3,"byteOffset":0,"componentType":5126,"count":66,"max":[1.0,1.0],"min":[0.0,0.0],"normalized":false,"type":"VEC2"},{"bufferView":4,"byteOffset":0,"componentType":5123,"count":66,"max":[65.0],"min":[0.0],"normalized":false,"type":"SCALAR"}],"asset":{"generator":"Godot Engine v4.4.stable.official@4c311cbee68c0b66ff8ebb8b0defdd9979dd2a41","version":"2.0"},"bufferViews":[{"buffer":0,"byteLength":792,"byteOffset":0,"byteStride":12,"target":34962},{"buffer":0,"byteLength":1056,"byteOffset":792,"byteStride":16,"target":34962},{"buffer":0,"byteLength":792,"byteOffset":1848,"byteStride":12,"target":34962},{"buffer":0,"byteLength":528,"byteOffset":2640,"byteStride":8,"target":34962},{"buffer":0,"byteLength":132,"byteOffset":3168,"target":34963}],"buffers":[{"byteLength":3300,"uri":"curved_screen0.bin"}],"extensionsUsed":["GODOT_single_root"],"materials":[{}],"meshes":[{"extras":{"targetNames":[]},"primitives":[{"attributes":{"NORMAL":2,"POSITION":0,"TANGENT":1,"TEXCOORD_0":3},"indices":4,"material":0,"mode":4}]}],"nodes":[{"children":[1],"mesh":0,"name":"Monitor2"},{"children":[2],"name":"CSGCylinder3D","rotation":[0.70710676908493,0.0,0.0,0.70710676908493],"translation":[-0.159934520721436,0.0,0.0]},{"name":"Cutoff","translation":[-0.23974609375,0.0,0.19281005859375]}],"scene":0,"scenes":[{"nodes":[0]}]}