{"accessors":[{"bufferView":0,"byteOffset":0,"componentType":5126,"count":258,"max":[6.0,0.0,6.0],"min":[-6.0,-2.0,-6.0],"normalized":false,"type":"VEC3"},{"bufferView":1,"byteOffset":0,"componentType":5126,"count":258,"max":[0.994301557540894,0.198794201016426,1.0,-1.0],"min":[-1.0,-1.0,-1.0,-1.0],"normalized":false,"type":"VEC4"},{"bufferView":2,"byteOffset":0,"componentType":5126,"count":258,"max":[1.0,1.0,1.0],"min":[-1.0,-1.0,-1.0],"normalized":false,"type":"VEC3"},{"bufferView":3,"byteOffset":0,"componentType":5126,"count":258,"max":[1.0,1.0],"min":[0.0,0.0],"normalized":false,"type":"VEC2"},{"bufferView":4,"byteOffset":0,"componentType":5123,"count":258,"max":[257.0],"min":[0.0],"normalized":false,"type":"SCALAR"}],"asset":{"generator":"Godot Engine v4.4.stable.official@4c311cbee68c0b66ff8ebb8b0defdd9979dd2a41","version":"2.0"},"bufferViews":[{"buffer":0,"byteLength":3096,"byteOffset":0,"byteStride":12,"target":34962},{"buffer":0,"byteLength":4128,"byteOffset":3096,"byteStride":16,"target":34962},{"buffer":0,"byteLength":3096,"byteOffset":7224,"byteStride":12,"target":34962},{"buffer":0,"byteLength":2064,"byteOffset":10320,"byteStride":8,"target":34962},{"buffer":0,"byteLength":516,"byteOffset":12384,"target":34963}],"buffers":[{"byteLength":12900,"uri":"DarkPool0.bin"}],"extensionsUsed":["GODOT_single_root"],"materials":[{}],"meshes":[{"extras":{"targetNames":[]},"primitives":[{"attributes":{"NORMAL":2,"POSITION":0,"TANGENT":1,"TEXCOORD_0":3},"indices":4,"material":0,"mode":4}]}],"nodes":[{"children":[1],"name":"DarkPool"},{"children":[2,3],"mesh":0,"name":"PoolFloor2"},{"name":"Floor","translation":[0.0,-1.0,0.0]},{"name":"PoolHole","translation":[0.0,1.35147023200989,0.0]}],"scene":0,"scenes":[{"nodes":[0]}]}