{"accessors":[{"bufferView":0,"byteOffset":0,"componentType":5126,"count":840,"max":[0.858999967575073,0.770323514938354,0.100000008940697],"min":[-0.5,-0.5,-0.100000008940697],"normalized":false,"type":"VEC3"},{"bufferView":1,"byteOffset":0,"componentType":5126,"count":840,"max":[1.0,1.0,0.000107667423435487,1.0],"min":[-1.0,-1.0,-1.0,-1.0],"normalized":false,"type":"VEC4"},{"bufferView":2,"byteOffset":0,"componentType":5126,"count":840,"max":[1.0,1.0,1.0],"min":[-1.0,-1.0,-1.0],"normalized":false,"type":"VEC3"},{"bufferView":3,"byteOffset":0,"componentType":5126,"count":840,"max":[1.0,1.0],"min":[0.0,0.0],"normalized":false,"type":"VEC2"},{"bufferView":4,"byteOffset":0,"componentType":5123,"count":840,"max":[839.0],"min":[0.0],"normalized":false,"type":"SCALAR"}],"asset":{"generator":"Godot Engine v4.4.stable.official@4c311cbee68c0b66ff8ebb8b0defdd9979dd2a41","version":"2.0"},"bufferViews":[{"buffer":0,"byteLength":10080,"byteOffset":0,"byteStride":12,"target":34962},{"buffer":0,"byteLength":13440,"byteOffset":10080,"byteStride":16,"target":34962},{"buffer":0,"byteLength":10080,"byteOffset":23520,"byteStride":12,"target":34962},{"buffer":0,"byteLength":6720,"byteOffset":33600,"byteStride":8,"target":34962},{"buffer":0,"byteLength":1680,"byteOffset":40320,"target":34963}],"buffers":[{"byteLength":42000,"uri":"JigsawPiece0.bin"}],"extensionsUsed":["GODOT_single_root"],"materials":[{}],"meshes":[{"extras":{"targetNames":[]},"primitives":[{"attributes":{"NORMAL":2,"POSITION":0,"TANGENT":1,"TEXCOORD_0":3},"indices":4,"material":0,"mode":4}]}],"nodes":[{"children":[1,2,3,4,5],"mesh":0,"name":"JigsawPiece2"},{"name":"MainBody"},{"name":"Extension1","rotation":[0.70710676908493,0.0,0.0,0.70710676908493],"translation":[0.658999979496002,0.0,0.0]},{"name":"Extension2","rotation":[0.70710676908493,0.0,0.0,0.70710676908493],"translation":[0.0,0.570323526859283,0.0]},{"name":"Dent1","rotation":[0.70710676908493,0.0,0.0,0.70710676908493],"translation":[0.0,-0.405583441257477,0.0]},{"name":"Dent2","rotation":[0.70710676908493,0.0,0.0,0.70710676908493],"translation":[-0.40599998831749,0.0,0.0]}],"scene":0,"scenes":[{"nodes":[0]}]}