{"accessors":[{"bufferView":0,"byteOffset":0,"componentType":5126,"count":144,"max":[0.5,0.00499999988824129,0.5],"min":[-0.34442275762558,-0.00499999988824129,-0.436442792415619],"normalized":false,"type":"VEC3"},{"bufferView":1,"byteOffset":0,"componentType":5126,"count":144,"max":[1.0,0.0000645775944576599,0.99748569726944,1.0],"min":[-1.0,-0.0000152592547237873,-1.0,-1.0],"normalized":false,"type":"VEC4"},{"bufferView":2,"byteOffset":0,"componentType":5126,"count":144,"max":[1.0,1.0,1.0],"min":[-0.997485876083374,-1.0,-1.0],"normalized":false,"type":"VEC3"},{"bufferView":3,"byteOffset":0,"componentType":5126,"count":144,"max":[1.0,0.968221426010132],"min":[0.0,0.0],"normalized":false,"type":"VEC2"},{"bufferView":4,"byteOffset":0,"componentType":5123,"count":144,"max":[143.0],"min":[0.0],"normalized":false,"type":"SCALAR"}],"asset":{"generator":"Godot Engine v4.4.stable.official@4c311cbee68c0b66ff8ebb8b0defdd9979dd2a41","version":"2.0"},"bufferViews":[{"buffer":0,"byteLength":1728,"byteOffset":0,"byteStride":12,"target":34962},{"buffer":0,"byteLength":2304,"byteOffset":1728,"byteStride":16,"target":34962},{"buffer":0,"byteLength":1728,"byteOffset":4032,"byteStride":12,"target":34962},{"buffer":0,"byteLength":1152,"byteOffset":5760,"byteStride":8,"target":34962},{"buffer":0,"byteLength":288,"byteOffset":6912,"target":34963}],"buffers":[{"byteLength":7200,"uri":"simple_b_stain0.bin"}],"extensionsUsed":["GODOT_single_root"],"materials":[{}],"meshes":[{"extras":{"targetNames":[]},"primitives":[{"attributes":{"NORMAL":2,"POSITION":0,"TANGENT":1,"TEXCOORD_0":3},"indices":4,"material":0,"mode":4}]}],"nodes":[{"children":[1,2,3,4,5,6],"mesh":0,"name":"BloodStain2"},{"name":"Plane"},{"name":"Cutter1","translation":[0.669340908527374,0.0,-0.426514387130737]},{"name":"Cutter2","translation":[0.78619784116745,0.000000357627868652344,0.647307395935059]},{"name":"Cutter3","translation":[-0.449862778186798,0.000000357627868652344,0.549654841423035]},{"name":"Cutter4","translation":[-0.706247568130493,0.000000357627868652344,-0.240254908800125]},{"name":"Cutter5","translation":[-0.10730105638504,0.000000357627868652344,-0.8201504945755]}],"scene":0,"scenes":[{"nodes":[0]}]}