{"accessors":[{"bufferView":0,"byteOffset":0,"componentType":5126,"count":96,"max":[1.0,0.699999988079071,0.625],"min":[0.0,-1.0,-0.625],"normalized":false,"type":"VEC3"},{"bufferView":1,"byteOffset":0,"componentType":5126,"count":96,"max":[1.0,0.0,0.0000763009302318096,1.0],"min":[-1.0,-1.0,-1.0,-1.0],"normalized":false,"type":"VEC4"},{"bufferView":2,"byteOffset":0,"componentType":5126,"count":96,"max":[1.0,0.866026937961578,1.0],"min":[-1.0,-1.0,-1.0],"normalized":false,"type":"VEC3"},{"bufferView":3,"byteOffset":0,"componentType":5126,"count":96,"max":[1.0,1.0],"min":[0.0,0.0],"normalized":false,"type":"VEC2"},{"bufferView":4,"byteOffset":0,"componentType":5123,"count":96,"max":[95.0],"min":[0.0],"normalized":false,"type":"SCALAR"}],"asset":{"generator":"Godot Engine v4.4.stable.official@4c311cbee68c0b66ff8ebb8b0defdd9979dd2a41","version":"2.0"},"bufferViews":[{"buffer":0,"byteLength":1152,"byteOffset":0,"byteStride":12,"target":34962},{"buffer":0,"byteLength":1536,"byteOffset":1152,"byteStride":16,"target":34962},{"buffer":0,"byteLength":1152,"byteOffset":2688,"byteStride":12,"target":34962},{"buffer":0,"byteLength":768,"byteOffset":3840,"byteStride":8,"target":34962},{"buffer":0,"byteLength":192,"byteOffset":4608,"target":34963}],"buffers":[{"byteLength":4800,"uri":"terminal0.bin"}],"extensionsUsed":["GODOT_single_root"],"materials":[{}],"meshes":[{"extras":{"targetNames":[]},"primitives":[{"attributes":{"NORMAL":2,"POSITION":0,"TANGENT":1,"TEXCOORD_0":3},"indices":4,"material":0,"mode":4}]}],"nodes":[{"children":[1,2,3],"mesh":0,"name":"CSGCombiner3D2"},{"name":"Slant","translation":[0.0,0.0,0.625]},{"name":"CSGBox3D","translation":[0.5,-0.5,0.0]},{"name":"CSGBox3D2","rotation":[0.0,0.0,0.499999970197678,0.866025388240814],"translation":[0.649041771888733,0.588699162006378,0.0]}],"scene":0,"scenes":[{"nodes":[0]}]}